<svg width="360" height="109" viewBox="0 0 360 109" fill="none" xmlns="http://www.w3.org/2000/svg">
<path d="M131.831 87.5307V94.4609H111.618V87.5307H131.831ZM114.671 54.4197V94.4609H105.706V54.4197H114.671ZM151.55 87.3657V74.6053C151.55 73.707 151.412 72.9369 151.137 72.2953C150.862 71.6536 150.431 71.1494 149.845 70.7827C149.258 70.416 148.497 70.2327 147.562 70.2327C146.774 70.2327 146.086 70.3702 145.499 70.6452C144.931 70.9202 144.491 71.3144 144.179 71.8277C143.886 72.3411 143.739 72.9736 143.739 73.7253H135.159C135.159 72.3869 135.462 71.1402 136.067 69.9852C136.672 68.8302 137.533 67.8126 138.652 66.9326C139.788 66.0526 141.145 65.3742 142.722 64.8975C144.299 64.4025 146.068 64.155 148.029 64.155C150.358 64.155 152.43 64.5492 154.245 65.3376C156.078 66.1076 157.526 67.2718 158.59 68.8302C159.653 70.3702 160.185 72.3136 160.185 74.6603V87.1182C160.185 88.9149 160.286 90.3266 160.487 91.3533C160.707 92.3617 161.019 93.2417 161.422 93.9934V94.4609H152.76C152.356 93.5992 152.054 92.5359 151.852 91.2708C151.65 89.9875 151.55 88.6858 151.55 87.3657ZM152.622 76.3104L152.677 81.0405H148.415C147.461 81.0405 146.636 81.1597 145.939 81.398C145.261 81.6364 144.711 81.9664 144.289 82.3881C143.868 82.7914 143.556 83.2681 143.354 83.8181C143.171 84.3498 143.079 84.9365 143.079 85.5782C143.079 86.1832 143.226 86.7332 143.519 87.2282C143.813 87.7049 144.216 88.0807 144.729 88.3558C145.243 88.6308 145.839 88.7683 146.517 88.7683C147.635 88.7683 148.589 88.5483 149.377 88.1082C150.184 87.6682 150.807 87.1365 151.247 86.5132C151.687 85.8715 151.907 85.2757 151.907 84.7256L153.97 88.3007C153.64 89.0341 153.236 89.795 152.76 90.5833C152.283 91.3533 151.678 92.0775 150.945 92.7559C150.211 93.4159 149.322 93.9568 148.277 94.3784C147.25 94.8001 146.013 95.011 144.564 95.011C142.694 95.011 140.998 94.6351 139.477 93.8834C137.955 93.1134 136.736 92.0592 135.819 90.7208C134.921 89.3824 134.472 87.8424 134.472 86.1007C134.472 84.5423 134.756 83.1581 135.324 81.9481C135.892 80.738 136.745 79.7113 137.882 78.868C139.037 78.0246 140.485 77.3921 142.227 76.9704C143.969 76.5304 146.004 76.3104 148.332 76.3104H152.622ZM174.238 71.0577V94.4609H165.63V64.705H173.715L174.238 71.0577ZM173.11 78.538L170.965 78.593C170.965 76.3562 171.24 74.3487 171.79 72.5703C172.34 70.7919 173.119 69.2793 174.128 68.0326C175.154 66.7676 176.374 65.8051 177.785 65.145C179.215 64.485 180.792 64.155 182.516 64.155C183.909 64.155 185.183 64.3567 186.338 64.76C187.493 65.1634 188.483 65.8142 189.308 66.7126C190.152 67.5926 190.793 68.766 191.233 70.2327C191.673 71.6811 191.893 73.4686 191.893 75.5954V94.4609H183.258V75.5679C183.258 74.3212 183.084 73.3586 182.736 72.6803C182.387 72.0019 181.874 71.5252 181.196 71.2502C180.535 70.9752 179.729 70.8377 178.775 70.8377C177.767 70.8377 176.905 71.0394 176.19 71.4427C175.475 71.8277 174.889 72.3686 174.43 73.0653C173.972 73.762 173.633 74.5778 173.413 75.5129C173.211 76.4479 173.11 77.4563 173.11 78.538ZM214.829 87.8057V52.2197H223.464V94.4609H215.709L214.829 87.8057ZM196.293 79.9405V79.363C196.293 77.1079 196.541 75.0545 197.036 73.2028C197.549 71.3327 198.292 69.7285 199.264 68.3901C200.254 67.0334 201.473 65.9884 202.921 65.255C204.37 64.5217 206.029 64.155 207.899 64.155C209.622 64.155 211.126 64.54 212.409 65.31C213.692 66.0617 214.783 67.1251 215.682 68.5001C216.598 69.8569 217.341 71.4611 217.909 73.3128C218.477 75.1462 218.908 77.1354 219.202 79.2805V80.2705C218.927 82.3239 218.496 84.2398 217.909 86.0182C217.341 87.7966 216.598 89.3641 215.682 90.7208C214.783 92.0592 213.683 93.1134 212.381 93.8834C211.098 94.6351 209.586 95.011 207.844 95.011C205.974 95.011 204.315 94.6351 202.866 93.8834C201.436 93.1317 200.235 92.0775 199.264 90.7208C198.292 89.3641 197.549 87.7691 197.036 85.9357C196.541 84.1023 196.293 82.1039 196.293 79.9405ZM204.874 79.363V79.9405C204.874 81.1139 204.956 82.2047 205.121 83.2131C205.305 84.2215 205.598 85.1107 206.001 85.8807C206.405 86.6507 206.936 87.2557 207.596 87.6957C208.256 88.1174 209.063 88.3283 210.016 88.3283C211.3 88.3283 212.354 88.0349 213.179 87.4482C214.004 86.8432 214.627 86.009 215.049 84.9456C215.471 83.8823 215.691 82.6447 215.709 81.233V78.3454C215.709 77.1721 215.59 76.1179 215.352 75.1829C215.113 74.2478 214.756 73.4595 214.279 72.8178C213.821 72.1761 213.243 71.6902 212.546 71.3602C211.85 71.0119 211.025 70.8377 210.071 70.8377C209.136 70.8377 208.339 71.0577 207.679 71.4977C207.019 71.9194 206.478 72.5153 206.056 73.2853C205.653 74.0553 205.35 74.9628 205.149 76.0079C204.965 77.0346 204.874 78.1529 204.874 79.363Z" fill="white"/>
<path d="M232.868 52.2197V94.4609H224.26V52.2197H232.868ZM237.818 79.8855V79.308C237.818 77.1262 238.129 75.1187 238.753 73.2853C239.376 71.4336 240.293 69.8294 241.503 68.4726C242.713 67.1159 244.198 66.0617 245.958 65.31C247.718 64.54 249.735 64.155 252.008 64.155C254.318 64.155 256.353 64.54 258.113 65.31C259.892 66.0617 261.386 67.1159 262.596 68.4726C263.806 69.8294 264.723 71.4336 265.346 73.2853C265.969 75.1187 266.281 77.1262 266.281 79.308V79.8855C266.281 82.0489 265.969 84.0565 265.346 85.9082C264.723 87.7416 263.806 89.3458 262.596 90.7208C261.386 92.0775 259.901 93.1317 258.141 93.8834C256.381 94.6351 254.355 95.011 252.063 95.011C249.79 95.011 247.764 94.6351 245.985 93.8834C244.207 93.1317 242.713 92.0775 241.503 90.7208C240.293 89.3458 239.376 87.7416 238.753 85.9082C238.129 84.0565 237.818 82.0489 237.818 79.8855ZM246.425 79.308V79.8855C246.425 81.0589 246.517 82.1589 246.7 83.1856C246.902 84.2123 247.223 85.1107 247.663 85.8807C248.103 86.6507 248.681 87.2557 249.396 87.6957C250.129 88.1174 251.018 88.3283 252.063 88.3283C253.108 88.3283 253.988 88.1174 254.703 87.6957C255.418 87.2557 255.996 86.6507 256.436 85.8807C256.876 85.1107 257.187 84.2123 257.371 83.1856C257.572 82.1589 257.673 81.0589 257.673 79.8855V79.308C257.673 78.1529 257.572 77.0712 257.371 76.0629C257.187 75.0362 256.876 74.1287 256.436 73.3403C255.996 72.5519 255.409 71.9378 254.676 71.4977C253.961 71.0577 253.072 70.8377 252.008 70.8377C250.981 70.8377 250.111 71.0577 249.396 71.4977C248.681 71.9378 248.103 72.5519 247.663 73.3403C247.223 74.1287 246.902 75.0362 246.7 76.0629C246.517 77.0712 246.425 78.1529 246.425 79.308ZM279.399 71.6352V94.4609H270.819V64.705H278.876L279.399 71.6352ZM288.282 64.485L288.144 72.4878C287.778 72.4328 287.301 72.3869 286.714 72.3503C286.128 72.2953 285.623 72.2678 285.202 72.2678C284.102 72.2678 283.148 72.4053 282.342 72.6803C281.553 72.9369 280.893 73.322 280.362 73.8353C279.848 74.3487 279.463 74.9903 279.206 75.7604C278.95 76.5121 278.821 77.3829 278.821 78.3729L277.199 77.5754C277.199 75.6137 277.391 73.817 277.776 72.1853C278.161 70.5535 278.721 69.1418 279.454 67.9501C280.187 66.7401 281.086 65.8051 282.149 65.145C283.212 64.485 284.422 64.155 285.779 64.155C286.219 64.155 286.668 64.1825 287.127 64.2375C287.585 64.2925 287.97 64.375 288.282 64.485ZM308.577 87.8057V52.2197H317.213V94.4609H309.457L308.577 87.8057ZM290.042 79.9405V79.363C290.042 77.1079 290.289 75.0545 290.784 73.2028C291.298 71.3327 292.04 69.7285 293.012 68.3901C294.002 67.0334 295.221 65.9884 296.67 65.255C298.118 64.5217 299.777 64.155 301.647 64.155C303.371 64.155 304.874 64.54 306.157 65.31C307.441 66.0617 308.532 67.1251 309.43 68.5001C310.347 69.8569 311.089 71.4611 311.657 73.3128C312.226 75.1462 312.657 77.1354 312.95 79.2805V80.2705C312.675 82.3239 312.244 84.2398 311.657 86.0182C311.089 87.7966 310.347 89.3641 309.43 90.7208C308.532 92.0592 307.432 93.1134 306.13 93.8834C304.846 94.6351 303.334 95.011 301.592 95.011C299.722 95.011 298.063 94.6351 296.615 93.8834C295.184 93.1317 293.984 92.0775 293.012 90.7208C292.04 89.3641 291.298 87.7691 290.784 85.9357C290.289 84.1023 290.042 82.1039 290.042 79.9405ZM298.622 79.363V79.9405C298.622 81.1139 298.705 82.2047 298.87 83.2131C299.053 84.2215 299.346 85.1107 299.75 85.8807C300.153 86.6507 300.685 87.2557 301.345 87.6957C302.005 88.1174 302.811 88.3283 303.765 88.3283C305.048 88.3283 306.102 88.0349 306.927 87.4482C307.752 86.8432 308.376 86.009 308.797 84.9456C309.219 83.8823 309.439 82.6447 309.457 81.233V78.3454C309.457 77.1721 309.338 76.1179 309.1 75.1829C308.862 74.2478 308.504 73.4595 308.027 72.8178C307.569 72.1761 306.991 71.6902 306.295 71.3602C305.598 71.0119 304.773 70.8377 303.82 70.8377C302.885 70.8377 302.087 71.0577 301.427 71.4977C300.767 71.9194 300.226 72.5153 299.805 73.2853C299.401 74.0553 299.099 74.9628 298.897 76.0079C298.714 77.0346 298.622 78.1529 298.622 79.363ZM323.4 90.3908C323.4 89.1441 323.84 88.0991 324.72 87.2557C325.619 86.4124 326.783 85.9907 328.213 85.9907C329.661 85.9907 330.816 86.4124 331.678 87.2557C332.558 88.0991 332.998 89.1441 332.998 90.3908C332.998 91.6192 332.558 92.655 331.678 93.4984C330.816 94.3418 329.661 94.7634 328.213 94.7634C326.783 94.7634 325.619 94.3418 324.72 93.4984C323.84 92.655 323.4 91.6192 323.4 90.3908Z" fill="white"/>
<path fill-rule="evenodd" clip-rule="evenodd" d="M20.8616 9.26172L43.6031 26.3895V94.5947H20.8616V9.26172ZM42.7685 68.097L21.9047 73.4154V94.594H42.7685V68.097Z" fill="white"/>
<path d="M65.5122 73.4161L42.7707 68.0977V94.5947H65.5122V73.4161Z" fill="white"/>
<path fill-rule="evenodd" clip-rule="evenodd" d="M52.9946 0.5L75.7362 17.6278V85.833H73.8597V36.3859L52.9959 48.0696V85.833H52.9946V0.5Z" fill="white"/>
<path d="M96.5989 48.0705L73.8573 36.3867V94.5968H96.5989V48.0705Z" fill="white"/>
<path d="M215.002 41.1211L233.38 46.6554V51.3543H215.002V41.1211Z" fill="white"/>
</svg>
