<svg width="149" height="51" viewBox="0 0 149 51" fill="none" xmlns="http://www.w3.org/2000/svg">
<path d="M0.614502 4.72094V44.6564H1.19964V34.8554L10.8544 32.3686V44.6564H21.5331V34.8554L11.2932 32.2223V12.9128L0.614502 4.72094Z" fill="#274FB6"/>
<path d="M26.3604 8.96317L15.6817 0.625V23.0064L25.4827 17.4476V44.6564H36.0152V23.0064L26.3604 18.0328V8.96317Z" fill="#274FB6"/>
<path d="M52.6289 41.1196V44.0664H44.0342V41.1196H52.6289ZM45.3322 27.0406V44.0664H41.5201V27.0406H45.3322ZM61.0132 41.0495V35.6237C61.0132 35.2417 60.9547 34.9143 60.8378 34.6414C60.7209 34.3686 60.5377 34.1542 60.2882 33.9983C60.0388 33.8424 59.7152 33.7644 59.3177 33.7644C58.9824 33.7644 58.6901 33.8229 58.4406 33.9398C58.199 34.0567 58.0119 34.2243 57.8793 34.4426C57.7546 34.6609 57.6922 34.9299 57.6922 35.2495H54.0439C54.0439 34.6804 54.1725 34.1503 54.4298 33.6592C54.687 33.168 55.0534 32.7354 55.5289 32.3612C56.0123 31.987 56.5892 31.6985 57.2596 31.4958C57.93 31.2854 58.6823 31.1801 59.5164 31.1801C60.5065 31.1801 61.3874 31.3477 62.1592 31.6829C62.9388 32.0104 63.5546 32.5054 64.0068 33.168C64.4589 33.8229 64.685 34.6492 64.685 35.6471V40.9442C64.685 41.7082 64.7279 42.3085 64.8136 42.745C64.9072 43.1738 65.0397 43.548 65.2112 43.8676V44.0664H61.5277C61.3562 43.7 61.2276 43.2479 61.1418 42.71C61.0561 42.1643 61.0132 41.6108 61.0132 41.0495ZM61.4693 36.3487L61.4926 38.36H59.6801C59.2748 38.36 58.924 38.4106 58.6277 38.512C58.3393 38.6133 58.1054 38.7536 57.9261 38.9329C57.7468 39.1044 57.6143 39.3071 57.5285 39.541C57.4506 39.7671 57.4116 40.0165 57.4116 40.2894C57.4116 40.5467 57.474 40.7805 57.5987 40.991C57.7234 41.1937 57.8949 41.3535 58.1132 41.4704C58.3315 41.5874 58.5849 41.6458 58.8733 41.6458C59.3488 41.6458 59.7542 41.5523 60.0894 41.3652C60.4324 41.1781 60.6975 40.952 60.8846 40.687C61.0717 40.4141 61.1652 40.1608 61.1652 39.9269L62.0422 41.4471C61.9019 41.7589 61.7304 42.0824 61.5277 42.4176C61.325 42.745 61.0678 43.053 60.756 43.3414C60.4441 43.6221 60.066 43.852 59.6217 44.0313C59.1851 44.2106 58.6589 44.3003 58.0431 44.3003C57.2479 44.3003 56.5268 44.1405 55.8797 43.8208C55.2327 43.4934 54.7143 43.0452 54.3245 42.4761C53.9425 41.907 53.7515 41.2522 53.7515 40.5116C53.7515 39.8489 53.8724 39.2604 54.114 38.7458C54.3557 38.2313 54.7182 37.7948 55.2015 37.4362C55.6927 37.0776 56.3085 36.8086 57.0491 36.6293C57.7897 36.4422 58.655 36.3487 59.6451 36.3487H61.4693ZM70.6604 34.1152V44.0664H67.0003V31.414H70.4382L70.6604 34.1152ZM70.181 37.2958L69.2689 37.3192C69.2689 36.3682 69.3858 35.5145 69.6197 34.7583C69.8535 34.0022 70.1848 33.359 70.6136 32.8289C71.0502 32.291 71.5686 31.8817 72.1689 31.6011C72.7769 31.3204 73.4473 31.1801 74.1801 31.1801C74.7726 31.1801 75.3144 31.2659 75.8055 31.4374C76.2967 31.6089 76.7176 31.8856 77.0684 32.2676C77.427 32.6418 77.6999 33.1407 77.887 33.7644C78.0741 34.3803 78.1676 35.1403 78.1676 36.0446V44.0664H74.4959V36.0329C74.4959 35.5028 74.4218 35.0936 74.2737 34.8051C74.1256 34.5167 73.9073 34.314 73.6189 34.1971C73.3382 34.0801 72.9952 34.0217 72.5898 34.0217C72.1611 34.0217 71.7947 34.1074 71.4906 34.2789C71.1866 34.4426 70.9371 34.6726 70.7422 34.9688C70.5473 35.2651 70.4031 35.612 70.3096 36.0096C70.2238 36.4071 70.181 36.8359 70.181 37.2958ZM87.9201 41.2366V26.1051H91.5918V44.0664H88.2942L87.9201 41.2366ZM80.0386 37.8922V37.6467C80.0386 36.6878 80.1438 35.8147 80.3543 35.0273C80.5726 34.2321 80.8883 33.55 81.3015 32.9809C81.7225 32.404 82.2409 31.9597 82.8568 31.6479C83.4726 31.336 84.1781 31.1801 84.9733 31.1801C85.7061 31.1801 86.3453 31.3438 86.891 31.6713C87.4367 31.9909 87.9006 32.443 88.2826 33.0277C88.6723 33.6046 88.9881 34.2867 89.2297 35.0741C89.4714 35.8536 89.6546 36.6995 89.7793 37.6116V38.0325C89.6624 38.9057 89.4792 39.7203 89.2297 40.4765C88.9881 41.2327 88.6723 41.8992 88.2826 42.4761C87.9006 43.0452 87.4328 43.4934 86.8793 43.8208C86.3336 44.1405 85.6905 44.3003 84.9499 44.3003C84.1547 44.3003 83.4492 44.1405 82.8334 43.8208C82.2253 43.5012 81.7147 43.053 81.3015 42.4761C80.8883 41.8992 80.5726 41.221 80.3543 40.4414C80.1438 39.6618 80.0386 38.8121 80.0386 37.8922ZM83.687 37.6467V37.8922C83.687 38.3911 83.7221 38.855 83.7922 39.2837C83.8702 39.7125 83.9949 40.0906 84.1664 40.418C84.3379 40.7454 84.564 41.0027 84.8447 41.1898C85.1253 41.3691 85.4683 41.4587 85.8737 41.4587C86.4194 41.4587 86.8676 41.334 87.2184 41.0846C87.5692 40.8273 87.8343 40.4726 88.0136 40.0204C88.1929 39.5683 88.2865 39.0421 88.2942 38.4418V37.214C88.2942 36.7151 88.2436 36.2668 88.1422 35.8692C88.0409 35.4717 87.8889 35.1364 87.6862 34.8636C87.4913 34.5907 87.2457 34.3842 86.9495 34.2438C86.6533 34.0957 86.3024 34.0217 85.8971 34.0217C85.4995 34.0217 85.1604 34.1152 84.8797 34.3023C84.5991 34.4816 84.3691 34.735 84.1898 35.0624C84.0183 35.3898 83.8897 35.7757 83.8039 36.22C83.726 36.6566 83.687 37.1321 83.687 37.6467Z" fill="#274FB6"/>
<path d="M94.791 26.1051V44.0664H91.1309V26.1051H94.791ZM96.8958 37.8688V37.6233C96.8958 36.6956 97.0283 35.8419 97.2934 35.0624C97.5584 34.275 97.9482 33.5929 98.4627 33.016C98.9772 32.4391 99.6087 31.9909 100.357 31.6713C101.105 31.3438 101.963 31.1801 102.93 31.1801C103.912 31.1801 104.777 31.3438 105.526 31.6713C106.282 31.9909 106.917 32.4391 107.432 33.016C107.946 33.5929 108.336 34.275 108.601 35.0624C108.866 35.8419 108.999 36.6956 108.999 37.6233V37.8688C108.999 38.7887 108.866 39.6423 108.601 40.4297C108.336 41.2093 107.946 41.8914 107.432 42.4761C106.917 43.053 106.286 43.5012 105.537 43.8208C104.789 44.1405 103.928 44.3003 102.953 44.3003C101.986 44.3003 101.125 44.1405 100.369 43.8208C99.6126 43.5012 98.9772 43.053 98.4627 42.4761C97.9482 41.8914 97.5584 41.2093 97.2934 40.4297C97.0283 39.6423 96.8958 38.7887 96.8958 37.8688ZM100.556 37.6233V37.8688C100.556 38.3678 100.595 38.8355 100.673 39.2721C100.759 39.7086 100.895 40.0906 101.082 40.418C101.269 40.7454 101.515 41.0027 101.819 41.1898C102.131 41.3691 102.509 41.4587 102.953 41.4587C103.397 41.4587 103.772 41.3691 104.076 41.1898C104.38 41.0027 104.625 40.7454 104.812 40.418C104.999 40.0906 105.132 39.7086 105.21 39.2721C105.296 38.8355 105.339 38.3678 105.339 37.8688V37.6233C105.339 37.1321 105.296 36.6722 105.21 36.2434C105.132 35.8069 104.999 35.421 104.812 35.0858C104.625 34.7506 104.376 34.4894 104.064 34.3023C103.76 34.1152 103.382 34.0217 102.93 34.0217C102.493 34.0217 102.123 34.1152 101.819 34.3023C101.515 34.4894 101.269 34.7506 101.082 35.0858C100.895 35.421 100.759 35.8069 100.673 36.2434C100.595 36.6722 100.556 37.1321 100.556 37.6233ZM114.576 34.3608V44.0664H110.928V31.414H114.354L114.576 34.3608ZM118.353 31.3204L118.295 34.7233C118.139 34.6999 117.936 34.6804 117.687 34.6648C117.437 34.6414 117.223 34.6297 117.044 34.6297C116.576 34.6297 116.171 34.6882 115.828 34.8051C115.492 34.9143 115.212 35.078 114.986 35.2963C114.767 35.5145 114.604 35.7874 114.495 36.1148C114.385 36.4344 114.331 36.8047 114.331 37.2257L113.641 36.8866C113.641 36.0524 113.723 35.2885 113.887 34.5946C114.05 33.9008 114.288 33.3006 114.6 32.7938C114.912 32.2793 115.294 31.8817 115.746 31.6011C116.198 31.3204 116.712 31.1801 117.289 31.1801C117.476 31.1801 117.667 31.1918 117.862 31.2152C118.057 31.2386 118.221 31.2737 118.353 31.3204ZM126.983 41.2366V26.1051H130.655V44.0664H127.357L126.983 41.2366ZM119.102 37.8922V37.6467C119.102 36.6878 119.207 35.8147 119.418 35.0273C119.636 34.2321 119.952 33.55 120.365 32.9809C120.786 32.404 121.304 31.9597 121.92 31.6479C122.536 31.336 123.241 31.1801 124.036 31.1801C124.769 31.1801 125.409 31.3438 125.954 31.6713C126.5 31.9909 126.964 32.443 127.346 33.0277C127.736 33.6046 128.051 34.2867 128.293 35.0741C128.535 35.8536 128.718 36.6995 128.843 37.6116V38.0325C128.726 38.9057 128.542 39.7203 128.293 40.4765C128.051 41.2327 127.736 41.8992 127.346 42.4761C126.964 43.0452 126.496 43.4934 125.943 43.8208C125.397 44.1405 124.754 44.3003 124.013 44.3003C123.218 44.3003 122.512 44.1405 121.897 43.8208C121.289 43.5012 120.778 43.053 120.365 42.4761C119.952 41.8992 119.636 41.221 119.418 40.4414C119.207 39.6618 119.102 38.8121 119.102 37.8922ZM122.75 37.6467V37.8922C122.75 38.3911 122.785 38.855 122.855 39.2837C122.933 39.7125 123.058 40.0906 123.23 40.418C123.401 40.7454 123.627 41.0027 123.908 41.1898C124.189 41.3691 124.532 41.4587 124.937 41.4587C125.483 41.4587 125.931 41.334 126.282 41.0846C126.632 40.8273 126.898 40.4726 127.077 40.0204C127.256 39.5683 127.35 39.0421 127.357 38.4418V37.214C127.357 36.7151 127.307 36.2668 127.205 35.8692C127.104 35.4717 126.952 35.1364 126.749 34.8636C126.555 34.5907 126.309 34.3842 126.013 34.2438C125.716 34.0957 125.366 34.0217 124.96 34.0217C124.563 34.0217 124.224 34.1152 123.943 34.3023C123.662 34.4816 123.432 34.735 123.253 35.0624C123.082 35.3898 122.953 35.7757 122.867 36.22C122.789 36.6566 122.75 37.1321 122.75 37.6467ZM133.286 42.3358C133.286 41.8057 133.473 41.3613 133.847 41.0027C134.229 40.6441 134.724 40.4648 135.332 40.4648C135.948 40.4648 136.439 40.6441 136.806 41.0027C137.18 41.3613 137.367 41.8057 137.367 42.3358C137.367 42.8581 137.18 43.2985 136.806 43.6571C136.439 44.0157 135.948 44.195 135.332 44.195C134.724 44.195 134.229 44.0157 133.847 43.6571C133.473 43.2985 133.286 42.8581 133.286 42.3358Z" fill="#274FB6"/>
<path d="M86.6312 20.7578L94.4675 23.1176V25.1212H86.6312V20.7578Z" fill="#274FB6"/>
</svg>
