<svg width="14" height="18" viewBox="0 0 14 18" fill="none" xmlns="http://www.w3.org/2000/svg">
<path d="M13.5384 8.40364L0.606689 4.40993V0.351562L7.35974 2.4377C7.36194 2.43932 7.36465 2.44006 7.36734 2.43974L13.5386 4.34527L13.5384 8.40364Z" fill="url(#paint0_linear_106_918)"/>
<path d="M13.5385 13.0645L0.60675 9.07083V5.01172L7.22676 7.05568L13.5385 9.00673V13.0645Z" fill="url(#paint1_linear_106_918)"/>
<path d="M0.606689 17.104V13.0477L2.93829 12.3269H2.94015L6.12371 11.3438L12.6924 13.3728L0.606689 17.104Z" fill="url(#paint2_linear_106_918)"/>
<g style="mix-blend-mode:screen" opacity="0.4">
<g style="mix-blend-mode:screen" opacity="0.4">
<path d="M13.1589 7.89227L0.988098 0.871094L13.1589 4.63086V7.89227Z" fill="white"/>
</g>
</g>
<g style="mix-blend-mode:screen" opacity="0.4">
<g style="mix-blend-mode:screen" opacity="0.4">
<path d="M13.1589 12.5524L0.988098 5.53125L13.1589 9.29102V12.5524Z" fill="white"/>
</g>
</g>
<g style="mix-blend-mode:multiply" opacity="0.3">
<g style="mix-blend-mode:multiply" opacity="0.3">
<path d="M12.6933 13.3728L2.94012 12.3273L6.12461 11.3438L12.6933 13.3728Z" fill="black"/>
</g>
</g>
<g style="mix-blend-mode:multiply" opacity="0.3">
<g style="mix-blend-mode:multiply" opacity="0.3">
<path d="M13.5384 13.0606L0.606628 9.06693V5.00781C0.646579 5.68473 0.663675 6.35998 0.694149 7.03691L0.724435 8.05052L0.745433 8.95767C1.79714 9.2582 2.84694 9.5682 3.8948 9.88767L5.51139 10.3821L7.12593 10.8881C8.20049 11.2322 9.27301 11.5803 10.3437 11.9396C10.8762 12.1223 11.4125 12.301 11.9432 12.4893C12.4739 12.6775 13.0095 12.8627 13.5384 13.0606Z" fill="black"/>
</g>
</g>
<g style="mix-blend-mode:multiply" opacity="0.3">
<g style="mix-blend-mode:multiply" opacity="0.3">
<path d="M13.5384 8.40364L0.606628 4.40993V0.351562C0.646579 1.02848 0.663675 1.70374 0.694149 2.38065L0.724435 3.39427L0.745433 4.30142C1.79714 4.60193 2.84694 4.91195 3.8948 5.23142L5.51139 5.72587L7.12593 6.23166C8.20049 6.57597 9.27301 6.924 10.3437 7.28337C10.8762 7.46602 11.4125 7.64477 11.9432 7.833C12.4739 8.02123 13.0095 8.20612 13.5384 8.40364Z" fill="black"/>
</g>
</g>
<g style="mix-blend-mode:multiply" opacity="0.3">
<g style="mix-blend-mode:multiply" opacity="0.3">
<path d="M13.5406 7.29804C13.4891 6.8073 13.4568 6.31657 13.4321 5.82416C13.4189 5.5787 13.4055 5.33343 13.3979 5.08815C13.3903 4.88375 13.3826 4.68122 13.3793 4.47756C13.1563 4.41494 12.9361 4.35214 12.7137 4.28748L11.9396 4.05354C11.6828 3.97754 11.4262 3.89188 11.1694 3.81198C10.9126 3.73208 10.656 3.64846 10.4011 3.56299C10.1461 3.47751 9.88767 3.39371 9.63477 3.30285C9.38188 3.21198 9.12507 3.12614 8.87292 3.03286C8.36695 2.84834 7.86673 2.6564 7.37042 2.44531L13.5417 4.35084L13.5406 7.29804Z" fill="black"/>
</g>
</g>
<g style="mix-blend-mode:multiply" opacity="0.3">
<g style="mix-blend-mode:multiply" opacity="0.3">
<path d="M13.5393 12.0163C13.4878 11.5146 13.4555 11.0129 13.4308 10.5101C13.4155 10.259 13.4041 10.008 13.3966 9.75717C13.389 9.54794 13.3813 9.34057 13.3758 9.13135L12.6968 8.9355L11.9056 8.69784L11.1183 8.45052C10.8539 8.36877 10.5934 8.28329 10.3329 8.19577C10.0724 8.10825 9.8098 8.02278 9.54929 7.9295C9.28878 7.83622 9.02901 7.75075 8.77147 7.65375C8.25231 7.46794 7.73704 7.26967 7.22736 7.05469L13.5393 9.00462V12.0163Z" fill="black"/>
</g>
</g>
<g style="mix-blend-mode:multiply" opacity="0.3">
<g style="mix-blend-mode:multiply" opacity="0.3">
<path d="M0.695821 15.0741C0.716633 15.6845 0.732984 16.2931 0.747106 16.9035C1.18637 16.7572 1.62582 16.6145 2.06638 16.4718C2.5666 16.3083 3.06867 16.1485 3.5726 15.9926C4.576 15.675 5.58646 15.3688 6.5945 15.0646L8.11205 14.6176L9.63349 14.1841C10.1413 14.0434 10.649 13.9007 11.1587 13.7695C11.6702 13.6344 12.178 13.4956 12.6914 13.3721L0.606628 17.1032V13.0469C0.648251 13.7219 0.667206 14.399 0.695821 15.0741Z" fill="black"/>
</g>
</g>
<defs>
<linearGradient id="paint0_linear_106_918" x1="-143.08" y1="-133.989" x2="-143.08" y2="-121.026" gradientUnits="userSpaceOnUse">
<stop stop-color="#FCFC53"/>
<stop offset="1" stop-color="#F8A700"/>
</linearGradient>
<linearGradient id="paint1_linear_106_918" x1="-138.41" y1="-133.996" x2="-138.41" y2="-121.031" gradientUnits="userSpaceOnUse">
<stop stop-color="#FCC400"/>
<stop offset="1" stop-color="#F80300"/>
</linearGradient>
<linearGradient id="paint2_linear_106_918" x1="-131.865" y1="-121.038" x2="-132.617" y2="-129.669" gradientUnits="userSpaceOnUse">
<stop stop-color="#F58033"/>
<stop offset="1" stop-color="#A53826"/>
</linearGradient>
</defs>
</svg>
