<svg width="23" height="23" viewBox="0 0 23 23" fill="none" xmlns="http://www.w3.org/2000/svg">
<path d="M22.0814 12.5887C22.0947 12.3884 22.1054 12.1143 22.1054 11.9006C22.1054 11.6602 22.0958 11.4107 22.0749 11.1155C21.8748 8.34192 20.6319 5.74702 18.5959 3.85288C16.56 1.95874 13.8823 0.90592 11.1016 0.90625C8.32085 0.90658 5.64339 1.96004 3.60795 3.85466C1.57252 5.74929 0.330141 8.34448 0.130798 11.1181C-0.068545 13.8917 0.789939 16.6379 2.53352 18.8041C4.2771 20.9703 6.77639 22.3959 9.52852 22.7938C12.2806 23.1918 15.0814 22.5328 17.3673 20.9492C19.6531 19.3657 21.2544 16.9752 21.8489 14.2588C21.8489 14.2588 21.8839 14.1243 21.913 13.965C21.9851 13.5566 22.0626 12.9415 22.0814 12.5887ZM11.0941 21.5358C9.21759 21.5363 7.38179 20.989 5.81203 19.9609C4.24227 18.9328 3.00687 17.4687 2.2575 15.7484C1.50812 14.0281 1.27741 12.1263 1.59366 10.2767C1.90991 8.42708 2.75936 6.71005 4.03775 5.33641C5.31611 3.96278 6.96777 2.99232 8.78994 2.54418C10.6121 2.09604 12.5255 2.18972 14.2952 2.81372C16.0648 3.43773 17.6137 4.56491 18.7519 6.05685C19.89 7.54881 20.5676 9.34061 20.7016 11.2123C20.7179 11.4399 20.7291 11.6688 20.7291 11.9006C20.7291 12.1324 20.7179 12.3611 20.7016 12.5887H12.2796C12.1281 12.8511 11.8943 13.0561 11.6144 13.172C11.3345 13.2879 11.0242 13.3082 10.7316 13.2298C10.439 13.1513 10.1804 12.9786 9.99603 12.7382C9.81163 12.4979 9.71168 12.2034 9.71168 11.9005C9.71168 11.5976 9.81163 11.3031 9.99603 11.0628C10.1804 10.8224 10.439 10.6497 10.7316 10.5712C11.0242 10.4928 11.3345 10.5131 11.6144 10.629C11.8943 10.7449 12.1281 10.95 12.2796 11.2123H19.322C19.1505 9.14778 18.21 7.22296 16.6866 5.81912C15.1633 4.4153 13.1681 3.63487 11.0965 3.63246C9.0249 3.63004 7.02796 4.40581 5.50128 5.80609C3.9746 7.20636 3.02956 9.129 2.85337 11.1931C2.67718 13.2572 3.2827 15.3121 4.54997 16.9509C5.81725 18.5897 7.65382 19.6927 9.69586 20.0414C11.7379 20.3901 13.8364 19.9591 15.5757 18.8338C17.3151 17.7085 18.5681 15.9709 19.087 13.9653H20.5043C20.0335 16.1108 18.8438 18.0309 17.1324 19.4078C15.421 20.7846 13.2905 21.5354 11.0941 21.5358ZM11.0941 7.77178C10.369 7.77089 9.65657 7.96093 9.02829 8.32276C8.40002 8.68458 7.8781 9.20548 7.51501 9.83302C7.15192 10.4606 6.96047 11.1727 6.95992 11.8977C6.95937 12.6227 7.14973 13.3351 7.51186 13.9632C7.87399 14.5912 8.39511 15.113 9.02283 15.4758C9.65055 15.8386 10.3627 16.0296 11.0878 16.0299C11.8128 16.0302 12.5251 15.8394 13.153 15.477C13.781 15.1145 14.3024 14.5932 14.6649 13.9653H16.1908C15.7116 15.1496 14.8355 16.1304 13.7126 16.7397C12.5896 17.3489 11.2897 17.5487 10.0356 17.3046C8.78154 17.0605 7.6514 16.3879 6.83886 15.402C6.02632 14.4159 5.58198 13.1782 5.58198 11.9006C5.58198 10.623 6.02632 9.38515 6.83886 8.39923C7.6514 7.41332 8.78154 6.74068 10.0356 6.49661C11.2897 6.25254 12.5896 6.45223 13.7126 7.06146C14.8355 7.67067 15.7116 8.6515 16.1908 9.83584H14.6646C14.3032 9.20849 13.7828 8.68741 13.1559 8.32507C12.5291 7.96273 11.8178 7.77189 11.0938 7.77178H11.0941Z" fill="#B60636"/>
</svg>
