<svg width="14" height="20" viewBox="0 0 14 20" fill="none" xmlns="http://www.w3.org/2000/svg">
<path d="M7.03038 0.387037C6.30402 0.387248 5.60747 0.67545 5.09385 1.18829C4.58024 1.70112 4.29161 2.39662 4.29139 3.12188V4.36426H3.04712C2.68717 4.36396 2.33069 4.43454 1.99808 4.57195C1.66547 4.70935 1.36327 4.91091 1.10875 5.16505C0.854231 5.41919 0.6524 5.72096 0.514802 6.05306C0.377204 6.38518 0.306541 6.74113 0.306856 7.10053V9.83441H4.29075V12.3192H3.04648C2.31991 12.3191 1.62306 12.6072 1.10918 13.12C0.595296 13.6329 0.306467 14.3285 0.306213 15.054V19.7788H3.04776C3.40737 19.7787 3.76342 19.7078 4.09559 19.5702C4.42774 19.4326 4.7295 19.2311 4.98365 18.977C5.23778 18.723 5.43931 18.4214 5.57673 18.0896C5.71414 17.7577 5.78474 17.4022 5.78451 17.0432H5.78802V15.2381L5.78069 15.239V3.73909L5.78675 3.74052V3.12235C5.78738 2.79274 5.91857 2.47675 6.15169 2.24336C6.38479 2.00997 6.7009 1.87814 7.03102 1.87662H11.7894V3.12235C11.7884 3.45182 11.6567 3.76748 11.4233 4.0003C11.1898 4.23311 10.8735 4.36415 10.5435 4.36474H6.34987V5.85592H10.5429C11.2692 5.85596 11.9659 5.5679 12.4795 5.05511C12.9932 4.54233 13.2818 3.84682 13.2819 3.12156V0.386719L7.03038 0.387037ZM4.29139 8.34307H1.80189V7.10068C1.80244 6.77068 1.93378 6.45431 2.16724 6.22071C2.40068 5.98711 2.71726 5.85526 3.04776 5.85401H4.29203L4.29139 8.34307ZM4.29139 17.0445C4.29084 17.3739 4.15961 17.6898 3.92643 17.9228C3.69323 18.156 3.37707 18.2873 3.04712 18.2882H1.80125V15.0548C1.80155 14.7251 1.93296 14.4091 2.16658 14.1761C2.40022 13.9431 2.71693 13.8123 3.04712 13.8124H4.29139V17.0445ZM6.34987 9.83425H9.49244V11.0779C9.49123 11.4073 9.35952 11.7229 9.12609 11.9556C8.89267 12.1884 8.57648 12.3195 8.24657 12.3203H6.34987V13.8124H8.24721C8.60696 13.8126 8.96321 13.742 9.2956 13.6046C9.62799 13.4673 9.93002 13.2658 10.1844 13.0118C10.4388 12.7578 10.6405 12.4563 10.7781 12.1244C10.9157 11.7925 10.9864 11.4368 10.9862 11.0776H10.9875V8.34276H6.34987V9.83425Z" fill="#18988B"/>
</svg>
