<svg width="15" height="17" viewBox="0 0 15 17" fill="none" xmlns="http://www.w3.org/2000/svg">
<path d="M3.94752 9.89849C4.48032 9.14458 5.23216 8.57286 6.10103 8.26089C5.23402 7.9504 4.48358 7.38059 3.9516 6.62885C3.41962 5.87711 3.13188 4.97987 3.12745 4.05894C3.12745 4.05414 3.12652 4.05027 3.12652 4.04679L3.12745 0.304688H0.707703V16.2163H3.12745L3.12652 12.4742C3.12652 12.4709 3.12745 12.467 3.12745 12.462C3.13232 11.5438 3.41853 10.6491 3.94752 9.89849Z" fill="#0D988C"/>
<path d="M7.62103 7.97624C8.6609 7.96849 9.65602 7.55213 10.3916 6.81703C11.1271 6.08194 11.5441 5.08707 11.5525 4.0472V0.306156L9.12938 2.72777V4.0468C9.13539 4.24863 9.10082 4.4496 9.02774 4.6378C8.95465 4.82602 8.84454 4.99766 8.7039 5.14254C8.56327 5.28742 8.39498 5.4026 8.20903 5.48125C8.02307 5.55991 7.8232 5.60043 7.6213 5.60043C7.41939 5.60043 7.21953 5.55991 7.03358 5.48125C6.84761 5.4026 6.67933 5.28742 6.53869 5.14254C6.39806 4.99766 6.28795 4.82602 6.21486 4.6378C6.14177 4.4496 6.1072 4.24863 6.11321 4.0468V2.7239L3.69653 0.304688V4.0468C3.70247 5.08626 4.1177 6.08153 4.85227 6.81702C5.58683 7.5525 6.58158 7.96899 7.62103 7.97624Z" fill="#004F5D"/>
<path d="M7.6211 8.54688C6.58169 8.5541 5.58697 8.9705 4.85239 9.70591C4.11782 10.4413 3.70252 11.4365 3.69647 12.4759V16.218L6.11315 13.7988V12.4759C6.10714 12.2741 6.14171 12.0731 6.2148 11.8849C6.28789 11.6967 6.398 11.525 6.53863 11.3802C6.67927 11.2353 6.84755 11.1201 7.0335 11.0415C7.21947 10.9628 7.41933 10.9223 7.62124 10.9223C7.82314 10.9223 8.02301 10.9628 8.20897 11.0415C8.39492 11.1201 8.56321 11.2353 8.70384 11.3802C8.84448 11.525 8.95459 11.6967 9.02768 11.8849C9.10076 12.0731 9.13533 12.2741 9.12932 12.4759V13.7949L11.5524 16.2167V12.4759C11.544 11.436 11.1271 10.4412 10.3915 9.70609C9.65596 8.97099 8.66085 8.55463 7.62097 8.54688H7.6211Z" fill="#004F5D"/>
<path d="M14.5398 0.304688H12.1215V4.04533C12.1185 4.96829 11.8314 5.86793 11.2991 6.62194C10.7668 7.37593 10.0151 7.94768 9.14642 8.25943C10.0152 8.57102 10.7668 9.14268 11.2991 9.89662C11.8315 10.6506 12.1186 11.5502 12.1215 12.4731V16.2139H14.5398V0.304688Z" fill="#0D988C"/>
</svg>
