<svg width="17" height="18" viewBox="0 0 17 18" fill="none" xmlns="http://www.w3.org/2000/svg">
<path d="M15.3123 4.46765C15.0689 4.13359 14.8016 3.81766 14.5124 3.52235C14.4918 3.50165 14.4723 3.48109 14.4518 3.46039C13.5377 2.54542 12.4262 1.85207 11.2025 1.43359V12.5328C11.2025 12.9049 11.1292 13.2733 10.9868 13.617C10.8445 13.9608 10.6358 14.2731 10.3727 14.5361C10.1096 14.7993 9.7973 15.008 9.45356 15.1503C9.10982 15.2926 8.7414 15.3659 8.36935 15.3659H6.68048V17.7159C7.26833 17.8412 7.86774 17.9045 8.46882 17.9045C10.0296 17.9047 11.5601 17.4731 12.8909 16.6576C14.2217 15.8421 15.3009 14.6742 16.0093 13.2834C16.7176 11.8926 17.0273 10.3329 16.9044 8.77696C16.7814 7.221 16.2304 5.72939 15.3123 4.46712V4.46765Z" fill="#0064AF"/>
<path d="M8.4688 0.980469C6.90804 0.980617 5.37773 1.41242 4.04709 2.22813C2.71646 3.04383 1.63734 4.21166 0.929078 5.60246C0.220818 6.99327 -0.0889925 8.55287 0.0339087 10.1088C0.156809 11.6647 0.707635 13.1563 1.62547 14.4187C1.86942 14.7526 2.13715 15.0685 2.42658 15.3638C2.44647 15.3839 2.46596 15.4039 2.48586 15.4253C3.39975 16.3401 4.51091 17.0336 5.73422 17.4526V6.3523C5.73454 5.60094 6.03323 4.88047 6.56464 4.34929C7.09605 3.81812 7.81665 3.51972 8.56801 3.51972H10.2569V1.1698C9.66919 1.04392 9.06984 0.980458 8.4688 0.980469Z" fill="#003572"/>
</svg>
